<svg width="77" height="16" viewBox="0 0 77 16" fill="none" xmlns="http://www.w3.org/2000/svg">
<path d="M53.9482 0C59.1243 3.75503e-06 59.4307 3.84843 59.4307 5.2832V10.7178C59.4306 11.4657 59.3472 12.8655 58.5371 14.0371C58.0269 14.7681 57.2964 15.3188 56.4512 15.6094C54.8238 16.1302 53.073 16.1302 51.4453 15.6094C49.5345 14.9105 48.8428 13.4102 48.5967 12.1631C48.5057 11.6868 48.4616 11.2025 48.4648 10.7178V5.2832C48.4648 3.84843 48.771 0 53.9482 0ZM65.0518 10.7178L66.7549 0.392578H69.9014L71.6045 10.7178L73.0244 0.392578H77L74.0684 15.6143H69.7881L68.3252 9.15723L66.8613 15.6084H62.582L59.6592 0.392578H63.6328L65.0518 10.7178ZM5.52148 0.392578C9.41913 0.392578 10.8397 1.87624 10.9766 5.06836C10.9837 5.2427 10.9872 5.42419 10.9824 5.61523V10.3701C10.9824 13.7115 9.79388 15.3915 6.26367 15.5898C6.0276 15.6033 5.77997 15.6094 5.52148 15.6094H0V0.392578H5.52148ZM17.3486 0C22.2629 0 22.7005 2.91279 22.7041 5.65332V15.6094H18.9463V12.4141H15.7568V15.6074H12V5.25684C12.0493 2.64175 12.6673 5.40859e-05 17.3486 0ZM29.3838 0.392578C33.272 0.392578 34.8457 2.04332 34.8457 5.60938C34.8457 7.26035 34.5528 8.45176 33.7451 9.36328C33.5314 9.60103 33.2924 9.81489 33.0322 10.001L36.0723 15.6094H31.8789L29.4092 10.8477H27.7285V15.6094H23.9238V0.392578H29.3838ZM42.0479 0.392578C45.9345 0.392688 47.5078 2.04344 47.5078 5.60938C47.5078 7.67488 47.0496 9.02254 45.6943 10.001L46.6689 11.7998L48.7373 15.6094H44.5361L42.1162 10.9414L42.0674 10.8477H40.3877V15.6094H36.5859V0.392578H42.0479ZM53.9443 3.73926C52.3278 3.73928 52.2188 4.76209 52.2188 6.43457V9.56543C52.2188 11.2391 52.3278 12.2607 53.9443 12.2607C55.5614 12.2607 55.6699 11.2379 55.6699 9.56543V6.43457C55.6699 4.76087 55.5614 3.73926 53.9443 3.73926ZM3.75684 4.12988V11.873H5.5918C6.64063 11.873 7.16504 11.698 7.16504 10.3936L7.1709 5.60938C7.1709 4.72174 6.94419 4.36167 6.48926 4.2207C6.36985 4.18391 6.24667 4.16042 6.12207 4.15039H6.1084C5.95136 4.13015 5.78114 4.12988 5.5918 4.12988H3.75684ZM17.3486 4.08691C15.9072 4.08695 15.7539 4.60923 15.7539 5.65332V8.65332H18.9434V5.65332C18.9434 4.6092 18.7903 4.08691 17.3486 4.08691ZM27.7285 7.08691H29.5205C30.5684 7.08691 31.0937 6.9569 31.0938 5.60938C31.0938 4.26179 30.5684 4.13062 29.5205 4.15332H27.7285V7.08691ZM40.3877 7.08691H42.1787C43.2265 7.0869 43.751 6.95682 43.751 5.60938C43.751 4.26188 43.2265 4.13064 42.1787 4.15332H40.3877V7.08691Z" fill="#0E052E"/>
</svg>
